M48
;DRILL file {KiCad 5.0.2-bee76a0~70~ubuntu18.04.1} date Mi 12 Dez 2018 07:56:01 CET
;FORMAT={-:-/ absolute / metric / decimal}
FMAT,2
METRIC,TZ
T1C0.400
T2C0.850
T3C1.000
T4C1.150
T5C1.320
%
G90
G05
T1
X46.2Y-87.4
X47.6Y-87.2
X47.6Y-97.2
X47.6Y-98.5
X47.7Y-96.1
X47.7Y-99.9
X47.8Y-88.3
X47.8Y-89.6
X47.8Y-90.9
X47.8Y-92.1
X47.9Y-93.4
X47.9Y-94.7
X48.1Y-101.4
X52.4Y-104.3
X53.1Y-120.
X53.105Y-105.905
X53.3Y-110.3
X53.4Y-104.3
X53.7Y-107.5
X53.8Y-84.49
X58.3Y-122.5
X58.9Y-84.49
X60.1Y-110.
X63.4Y-112.2
X66.7Y-106.6
X67.1Y-118.2
X68.507Y-106.193
X69.263Y-110.837
X69.3Y-109.162
X69.6Y-101.
X70.938Y-109.162
X70.938Y-110.837
X71.3Y-81.9
X71.4Y-104.5
X71.9Y-92.6
X74.1Y-91.5
X74.2Y-100.7
X75.Y-99.5
X75.1Y-84.05
X75.7Y-122.1
X75.9Y-128.55
X76.5Y-98.1
X76.6Y-90.6
X77.9Y-123.4
X79.7Y-101.6
X79.8Y-110.4
X79.9Y-100.1
X80.1Y-96.8
X80.2Y-112.2
X80.3Y-83.9
X80.7Y-117.1
X81.Y-101.9
X81.Y-122.1
X81.2Y-96.1
X82.048Y-95.57
X82.8Y-96.7
X83.608Y-94.897
X84.1Y-96.1
X87.7Y-111.8
X89.2Y-114.7
X89.8Y-81.5
X97.2Y-103.3
X100.9Y-89.5
X101.4Y-95.6
X103.2Y-128.6
X104.1Y-102.6
X104.8Y-100.8
X104.8Y-105.5
X105.2Y-81.8
X106.3Y-100.2
X115.1Y-113.1
X116.5Y-104.7
X117.6Y-89.1
X117.9Y-95.
X121.3Y-78.
T2
X50.663Y-105.099
X50.663Y-110.099
T3
X73.496Y-79.2
X76.036Y-79.2
X78.576Y-79.2
X81.116Y-79.2
X82.64Y-127.46
X83.656Y-79.2
X85.18Y-127.46
X86.196Y-79.2
X87.72Y-127.46
X88.736Y-79.2
X90.26Y-127.46
X91.276Y-79.2
X92.8Y-127.46
X93.816Y-79.2
X95.34Y-127.46
X96.356Y-79.2
X97.88Y-127.46
X100.42Y-79.2
X100.42Y-127.46
X102.96Y-79.2
X105.5Y-79.2
X105.5Y-127.46
X108.04Y-79.2
X108.04Y-127.46
X110.58Y-79.2
X110.58Y-127.46
X113.12Y-79.2
X113.12Y-127.46
X115.66Y-79.2
X115.66Y-127.46
X118.2Y-79.2
X118.2Y-127.46
T4
X47.963Y-103.5
X47.963Y-111.7
T5
X47.99Y-115.
X120.21Y-115.
T0
M30
