%FSLAX45Y45*%
G04 Gerber Fmt 4.5, Leading zero omitted, Abs format (unit mm)*
G04 Created by KiCad (PCBNEW 5.0.2-bee76a0~70~ubuntu18.04.1) date Mi 12 Dez 2018 00:11:58 CET*
%MOMM*%
%LPD*%
G01*
G04 APERTURE LIST*
%ADD10C,0.150000*%
%ADD11C,0.200000*%
%ADD12C,0.300000*%
G04 APERTURE END LIST*
D10*
X12300000Y-13000000D02*
X12300000Y-7700000D01*
X4500000Y-7700000D02*
X4500000Y-13000000D01*
X12300000Y-7700000D02*
X4500000Y-7700000D01*
X4500000Y-13000000D02*
X12300000Y-13000000D01*
D11*
X4600000Y-8720000D02*
X4640000Y-8760000D01*
X4640000Y-8720000D02*
X4600000Y-8760000D01*
X4740000Y-8700000D02*
X4780000Y-8740000D01*
X4780000Y-8700000D02*
X4740000Y-8740000D01*
X4740000Y-9700000D02*
X4780000Y-9740000D01*
X4780000Y-9700000D02*
X4740000Y-9740000D01*
X4740000Y-9830000D02*
X4780000Y-9870000D01*
X4780000Y-9830000D02*
X4740000Y-9870000D01*
X4750000Y-9590000D02*
X4790000Y-9630000D01*
X4790000Y-9590000D02*
X4750000Y-9630000D01*
X4750000Y-9970000D02*
X4790000Y-10010000D01*
X4790000Y-9970000D02*
X4750000Y-10010000D01*
X4760000Y-8810000D02*
X4800000Y-8850000D01*
X4800000Y-8810000D02*
X4760000Y-8850000D01*
X4760000Y-8940000D02*
X4800000Y-8980000D01*
X4800000Y-8940000D02*
X4760000Y-8980000D01*
X4760000Y-9070000D02*
X4800000Y-9110000D01*
X4800000Y-9070000D02*
X4760000Y-9110000D01*
X4760000Y-9190000D02*
X4800000Y-9230000D01*
X4800000Y-9190000D02*
X4760000Y-9230000D01*
X4770000Y-9320000D02*
X4810000Y-9360000D01*
X4810000Y-9320000D02*
X4770000Y-9360000D01*
X4770000Y-9450000D02*
X4810000Y-9490000D01*
X4810000Y-9450000D02*
X4770000Y-9490000D01*
X4790000Y-10120000D02*
X4830000Y-10160000D01*
X4830000Y-10120000D02*
X4790000Y-10160000D01*
X5220000Y-10410000D02*
X5260000Y-10450000D01*
X5260000Y-10410000D02*
X5220000Y-10450000D01*
X5290503Y-10570503D02*
X5330503Y-10610503D01*
X5330503Y-10570503D02*
X5290503Y-10610503D01*
X5310000Y-11010000D02*
X5350000Y-11050000D01*
X5350000Y-11010000D02*
X5310000Y-11050000D01*
X5320000Y-10410000D02*
X5360000Y-10450000D01*
X5360000Y-10410000D02*
X5320000Y-10450000D01*
X5350000Y-10730000D02*
X5390000Y-10770000D01*
X5390000Y-10730000D02*
X5350000Y-10770000D01*
X5810000Y-12230000D02*
X5850000Y-12270000D01*
X5850000Y-12230000D02*
X5810000Y-12270000D01*
X5990000Y-10980000D02*
X6030000Y-11020000D01*
X6030000Y-10980000D02*
X5990000Y-11020000D01*
X6320000Y-11200000D02*
X6360000Y-11240000D01*
X6360000Y-11200000D02*
X6320000Y-11240000D01*
X6470000Y-10550000D02*
X6510000Y-10590000D01*
X6510000Y-10550000D02*
X6470000Y-10590000D01*
X6690000Y-11800000D02*
X6730000Y-11840000D01*
X6730000Y-11800000D02*
X6690000Y-11840000D01*
X6830747Y-10599253D02*
X6870747Y-10639253D01*
X6870747Y-10599253D02*
X6830747Y-10639253D01*
X6930000Y-8350000D02*
X6970000Y-8390000D01*
X6970000Y-8350000D02*
X6930000Y-8390000D01*
X6940000Y-10080000D02*
X6980000Y-10120000D01*
X6980000Y-10080000D02*
X6940000Y-10120000D01*
X7120000Y-10430000D02*
X7160000Y-10470000D01*
X7160000Y-10430000D02*
X7120000Y-10470000D01*
X7170000Y-9240000D02*
X7210000Y-9280000D01*
X7210000Y-9240000D02*
X7170000Y-9280000D01*
X7390000Y-9130000D02*
X7430000Y-9170000D01*
X7430000Y-9130000D02*
X7390000Y-9170000D01*
X7400000Y-10050000D02*
X7440000Y-10090000D01*
X7440000Y-10050000D02*
X7400000Y-10090000D01*
X7480000Y-9930000D02*
X7520000Y-9970000D01*
X7520000Y-9930000D02*
X7480000Y-9970000D01*
X7630000Y-9790000D02*
X7670000Y-9830000D01*
X7670000Y-9790000D02*
X7630000Y-9830000D01*
X7770000Y-12320000D02*
X7810000Y-12360000D01*
X7810000Y-12320000D02*
X7770000Y-12360000D01*
X7950000Y-10140000D02*
X7990000Y-10180000D01*
X7990000Y-10140000D02*
X7950000Y-10180000D01*
X7960000Y-11020000D02*
X8000000Y-11060000D01*
X8000000Y-11020000D02*
X7960000Y-11060000D01*
X7970000Y-9990000D02*
X8010000Y-10030000D01*
X8010000Y-9990000D02*
X7970000Y-10030000D01*
X7990000Y-9660000D02*
X8030000Y-9700000D01*
X8030000Y-9660000D02*
X7990000Y-9700000D01*
X8000000Y-11200000D02*
X8040000Y-11240000D01*
X8040000Y-11200000D02*
X8000000Y-11240000D01*
X8050000Y-11690000D02*
X8090000Y-11730000D01*
X8090000Y-11690000D02*
X8050000Y-11730000D01*
X8080000Y-10170000D02*
X8120000Y-10210000D01*
X8120000Y-10170000D02*
X8080000Y-10210000D01*
X8100000Y-9590000D02*
X8140000Y-9630000D01*
X8140000Y-9590000D02*
X8100000Y-9630000D01*
X8184800Y-9537000D02*
X8224800Y-9577000D01*
X8224800Y-9537000D02*
X8184800Y-9577000D01*
X8260000Y-9650000D02*
X8300000Y-9690000D01*
X8300000Y-9650000D02*
X8260000Y-9690000D01*
X8340775Y-9469745D02*
X8380775Y-9509745D01*
X8380775Y-9469745D02*
X8340775Y-9509745D01*
X8390000Y-9590000D02*
X8430000Y-9630000D01*
X8430000Y-9590000D02*
X8390000Y-9630000D01*
X9700000Y-10310000D02*
X9740000Y-10350000D01*
X9740000Y-10310000D02*
X9700000Y-10350000D01*
X10120000Y-9540000D02*
X10160000Y-9580000D01*
X10160000Y-9540000D02*
X10120000Y-9580000D01*
X10390000Y-10240000D02*
X10430000Y-10280000D01*
X10430000Y-10240000D02*
X10390000Y-10280000D01*
X10460000Y-10060000D02*
X10500000Y-10100000D01*
X10500000Y-10060000D02*
X10460000Y-10100000D01*
X10460000Y-10530000D02*
X10500000Y-10570000D01*
X10500000Y-10530000D02*
X10460000Y-10570000D01*
X10610000Y-10000000D02*
X10650000Y-10040000D01*
X10650000Y-10000000D02*
X10610000Y-10040000D01*
X11490000Y-11290000D02*
X11530000Y-11330000D01*
X11530000Y-11290000D02*
X11490000Y-11330000D01*
X11630000Y-10450000D02*
X11670000Y-10490000D01*
X11670000Y-10450000D02*
X11630000Y-10490000D01*
X11740000Y-8890000D02*
X11780000Y-8930000D01*
X11780000Y-8890000D02*
X11740000Y-8930000D01*
X11770000Y-9480000D02*
X11810000Y-9520000D01*
X11810000Y-9480000D02*
X11770000Y-9520000D01*
X5108754Y-10509910D02*
G75*
G03X5108754Y-10509910I-42500J0D01*
G01*
X5108754Y-11009910D02*
G75*
G03X5108754Y-11009910I-42500J0D01*
G01*
X7349600Y-7870000D02*
X7349600Y-7970000D01*
X7299600Y-7920000D02*
X7399600Y-7920000D01*
X7603600Y-7870000D02*
X7603600Y-7970000D01*
X7553600Y-7920000D02*
X7653600Y-7920000D01*
X7857600Y-7870000D02*
X7857600Y-7970000D01*
X7807600Y-7920000D02*
X7907600Y-7920000D01*
X8111600Y-7870000D02*
X8111600Y-7970000D01*
X8061600Y-7920000D02*
X8161600Y-7920000D01*
X8264000Y-12696000D02*
X8264000Y-12796000D01*
X8214000Y-12746000D02*
X8314000Y-12746000D01*
X8365600Y-7870000D02*
X8365600Y-7970000D01*
X8315600Y-7920000D02*
X8415600Y-7920000D01*
X8518000Y-12696000D02*
X8518000Y-12796000D01*
X8468000Y-12746000D02*
X8568000Y-12746000D01*
X8619600Y-7870000D02*
X8619600Y-7970000D01*
X8569600Y-7920000D02*
X8669600Y-7920000D01*
X8772000Y-12696000D02*
X8772000Y-12796000D01*
X8722000Y-12746000D02*
X8822000Y-12746000D01*
X8873600Y-7870000D02*
X8873600Y-7970000D01*
X8823600Y-7920000D02*
X8923600Y-7920000D01*
X9026000Y-12696000D02*
X9026000Y-12796000D01*
X8976000Y-12746000D02*
X9076000Y-12746000D01*
X9127600Y-7870000D02*
X9127600Y-7970000D01*
X9077600Y-7920000D02*
X9177600Y-7920000D01*
X9280000Y-12696000D02*
X9280000Y-12796000D01*
X9230000Y-12746000D02*
X9330000Y-12746000D01*
X9381600Y-7870000D02*
X9381600Y-7970000D01*
X9331600Y-7920000D02*
X9431600Y-7920000D01*
X9534000Y-12696000D02*
X9534000Y-12796000D01*
X9484000Y-12746000D02*
X9584000Y-12746000D01*
X9635600Y-7870000D02*
X9635600Y-7970000D01*
X9585600Y-7920000D02*
X9685600Y-7920000D01*
X9788000Y-12696000D02*
X9788000Y-12796000D01*
X9738000Y-12746000D02*
X9838000Y-12746000D01*
X10042000Y-7870000D02*
X10042000Y-7970000D01*
X9992000Y-7920000D02*
X10092000Y-7920000D01*
X10042000Y-12696000D02*
X10042000Y-12796000D01*
X9992000Y-12746000D02*
X10092000Y-12746000D01*
X10296000Y-7870000D02*
X10296000Y-7970000D01*
X10246000Y-7920000D02*
X10346000Y-7920000D01*
X10550000Y-7870000D02*
X10550000Y-7970000D01*
X10500000Y-7920000D02*
X10600000Y-7920000D01*
X10550000Y-12696000D02*
X10550000Y-12796000D01*
X10500000Y-12746000D02*
X10600000Y-12746000D01*
X10804000Y-7870000D02*
X10804000Y-7970000D01*
X10754000Y-7920000D02*
X10854000Y-7920000D01*
X10804000Y-12696000D02*
X10804000Y-12796000D01*
X10754000Y-12746000D02*
X10854000Y-12746000D01*
X11058000Y-7870000D02*
X11058000Y-7970000D01*
X11008000Y-7920000D02*
X11108000Y-7920000D01*
X11058000Y-12696000D02*
X11058000Y-12796000D01*
X11008000Y-12746000D02*
X11108000Y-12746000D01*
X11312000Y-7870000D02*
X11312000Y-7970000D01*
X11262000Y-7920000D02*
X11362000Y-7920000D01*
X11312000Y-12696000D02*
X11312000Y-12796000D01*
X11262000Y-12746000D02*
X11362000Y-12746000D01*
X11566000Y-7870000D02*
X11566000Y-7970000D01*
X11516000Y-7920000D02*
X11616000Y-7920000D01*
X11566000Y-12696000D02*
X11566000Y-12796000D01*
X11516000Y-12746000D02*
X11616000Y-12746000D01*
X11820000Y-7870000D02*
X11820000Y-7970000D01*
X11770000Y-7920000D02*
X11870000Y-7920000D01*
X11820000Y-12696000D02*
X11820000Y-12796000D01*
X11770000Y-12746000D02*
X11870000Y-12746000D01*
X4836913Y-10390659D02*
X4836913Y-10309341D01*
X4755595Y-10309341D01*
X4755595Y-10390659D01*
X4836913Y-10390659D01*
X4836913Y-11210659D02*
X4836913Y-11129341D01*
X4755595Y-11129341D01*
X4755595Y-11210659D01*
X4836913Y-11210659D01*
X4799000Y-11566000D02*
X4865000Y-11500000D01*
X4799000Y-11434000D01*
X4733000Y-11500000D01*
X4799000Y-11566000D01*
X12021000Y-11566000D02*
X12087000Y-11500000D01*
X12021000Y-11434000D01*
X11955000Y-11500000D01*
X12021000Y-11566000D01*
D12*
X4778928Y-13473214D02*
X4778928Y-13173214D01*
X4850357Y-13173214D01*
X4893214Y-13187500D01*
X4921786Y-13216071D01*
X4936071Y-13244643D01*
X4950357Y-13301786D01*
X4950357Y-13344643D01*
X4936071Y-13401786D01*
X4921786Y-13430357D01*
X4893214Y-13458929D01*
X4850357Y-13473214D01*
X4778928Y-13473214D01*
X5078928Y-13473214D02*
X5078928Y-13273214D01*
X5078928Y-13330357D02*
X5093214Y-13301786D01*
X5107500Y-13287500D01*
X5136071Y-13273214D01*
X5164643Y-13273214D01*
X5264643Y-13473214D02*
X5264643Y-13273214D01*
X5264643Y-13173214D02*
X5250357Y-13187500D01*
X5264643Y-13201786D01*
X5278928Y-13187500D01*
X5264643Y-13173214D01*
X5264643Y-13201786D01*
X5450357Y-13473214D02*
X5421786Y-13458929D01*
X5407500Y-13430357D01*
X5407500Y-13173214D01*
X5607500Y-13473214D02*
X5578928Y-13458929D01*
X5564643Y-13430357D01*
X5564643Y-13173214D01*
X5950357Y-13473214D02*
X5950357Y-13173214D01*
X6050357Y-13387500D01*
X6150357Y-13173214D01*
X6150357Y-13473214D01*
X6421786Y-13473214D02*
X6421786Y-13316071D01*
X6407500Y-13287500D01*
X6378928Y-13273214D01*
X6321786Y-13273214D01*
X6293214Y-13287500D01*
X6421786Y-13458929D02*
X6393214Y-13473214D01*
X6321786Y-13473214D01*
X6293214Y-13458929D01*
X6278928Y-13430357D01*
X6278928Y-13401786D01*
X6293214Y-13373214D01*
X6321786Y-13358929D01*
X6393214Y-13358929D01*
X6421786Y-13344643D01*
X6564643Y-13273214D02*
X6564643Y-13573214D01*
X6564643Y-13287500D02*
X6593214Y-13273214D01*
X6650357Y-13273214D01*
X6678928Y-13287500D01*
X6693214Y-13301786D01*
X6707500Y-13330357D01*
X6707500Y-13416071D01*
X6693214Y-13444643D01*
X6678928Y-13458929D01*
X6650357Y-13473214D01*
X6593214Y-13473214D01*
X6564643Y-13458929D01*
X6836071Y-13444643D02*
X6850357Y-13458929D01*
X6836071Y-13473214D01*
X6821786Y-13458929D01*
X6836071Y-13444643D01*
X6836071Y-13473214D01*
X6836071Y-13287500D02*
X6850357Y-13301786D01*
X6836071Y-13316071D01*
X6821786Y-13301786D01*
X6836071Y-13287500D01*
X6836071Y-13316071D01*
X4452500Y-13947500D02*
X4492500Y-13987500D01*
X4492500Y-13947500D02*
X4452500Y-13987500D01*
X4836071Y-13803214D02*
X4864643Y-13803214D01*
X4893214Y-13817500D01*
X4907500Y-13831786D01*
X4921786Y-13860357D01*
X4936071Y-13917500D01*
X4936071Y-13988929D01*
X4921786Y-14046071D01*
X4907500Y-14074643D01*
X4893214Y-14088929D01*
X4864643Y-14103214D01*
X4836071Y-14103214D01*
X4807500Y-14088929D01*
X4793214Y-14074643D01*
X4778928Y-14046071D01*
X4764643Y-13988929D01*
X4764643Y-13917500D01*
X4778928Y-13860357D01*
X4793214Y-13831786D01*
X4807500Y-13817500D01*
X4836071Y-13803214D01*
X5064643Y-14074643D02*
X5078928Y-14088929D01*
X5064643Y-14103214D01*
X5050357Y-14088929D01*
X5064643Y-14074643D01*
X5064643Y-14103214D01*
X5336071Y-13903214D02*
X5336071Y-14103214D01*
X5264643Y-13788929D02*
X5193214Y-14003214D01*
X5378928Y-14003214D01*
X5550357Y-13803214D02*
X5578928Y-13803214D01*
X5607500Y-13817500D01*
X5621786Y-13831786D01*
X5636071Y-13860357D01*
X5650357Y-13917500D01*
X5650357Y-13988929D01*
X5636071Y-14046071D01*
X5621786Y-14074643D01*
X5607500Y-14088929D01*
X5578928Y-14103214D01*
X5550357Y-14103214D01*
X5521786Y-14088929D01*
X5507500Y-14074643D01*
X5493214Y-14046071D01*
X5478928Y-13988929D01*
X5478928Y-13917500D01*
X5493214Y-13860357D01*
X5507500Y-13831786D01*
X5521786Y-13817500D01*
X5550357Y-13803214D01*
X5778928Y-14103214D02*
X5778928Y-13903214D01*
X5778928Y-13931786D02*
X5793214Y-13917500D01*
X5821786Y-13903214D01*
X5864643Y-13903214D01*
X5893214Y-13917500D01*
X5907500Y-13946071D01*
X5907500Y-14103214D01*
X5907500Y-13946071D02*
X5921786Y-13917500D01*
X5950357Y-13903214D01*
X5993214Y-13903214D01*
X6021786Y-13917500D01*
X6036071Y-13946071D01*
X6036071Y-14103214D01*
X6178928Y-14103214D02*
X6178928Y-13903214D01*
X6178928Y-13931786D02*
X6193214Y-13917500D01*
X6221786Y-13903214D01*
X6264643Y-13903214D01*
X6293214Y-13917500D01*
X6307500Y-13946071D01*
X6307500Y-14103214D01*
X6307500Y-13946071D02*
X6321786Y-13917500D01*
X6350357Y-13903214D01*
X6393214Y-13903214D01*
X6421786Y-13917500D01*
X6436071Y-13946071D01*
X6436071Y-14103214D01*
X7021786Y-13788929D02*
X6764643Y-14174643D01*
X7407500Y-13803214D02*
X7436071Y-13803214D01*
X7464643Y-13817500D01*
X7478928Y-13831786D01*
X7493214Y-13860357D01*
X7507500Y-13917500D01*
X7507500Y-13988929D01*
X7493214Y-14046071D01*
X7478928Y-14074643D01*
X7464643Y-14088929D01*
X7436071Y-14103214D01*
X7407500Y-14103214D01*
X7378928Y-14088929D01*
X7364643Y-14074643D01*
X7350357Y-14046071D01*
X7336071Y-13988929D01*
X7336071Y-13917500D01*
X7350357Y-13860357D01*
X7364643Y-13831786D01*
X7378928Y-13817500D01*
X7407500Y-13803214D01*
X7636071Y-14074643D02*
X7650357Y-14088929D01*
X7636071Y-14103214D01*
X7621786Y-14088929D01*
X7636071Y-14074643D01*
X7636071Y-14103214D01*
X7836071Y-13803214D02*
X7864643Y-13803214D01*
X7893214Y-13817500D01*
X7907500Y-13831786D01*
X7921786Y-13860357D01*
X7936071Y-13917500D01*
X7936071Y-13988929D01*
X7921786Y-14046071D01*
X7907500Y-14074643D01*
X7893214Y-14088929D01*
X7864643Y-14103214D01*
X7836071Y-14103214D01*
X7807500Y-14088929D01*
X7793214Y-14074643D01*
X7778928Y-14046071D01*
X7764643Y-13988929D01*
X7764643Y-13917500D01*
X7778928Y-13860357D01*
X7793214Y-13831786D01*
X7807500Y-13817500D01*
X7836071Y-13803214D01*
X8221786Y-14103214D02*
X8050357Y-14103214D01*
X8136071Y-14103214D02*
X8136071Y-13803214D01*
X8107500Y-13846071D01*
X8078928Y-13874643D01*
X8050357Y-13888929D01*
X8478928Y-13803214D02*
X8421786Y-13803214D01*
X8393214Y-13817500D01*
X8378928Y-13831786D01*
X8350357Y-13874643D01*
X8336071Y-13931786D01*
X8336071Y-14046071D01*
X8350357Y-14074643D01*
X8364643Y-14088929D01*
X8393214Y-14103214D01*
X8450357Y-14103214D01*
X8478928Y-14088929D01*
X8493214Y-14074643D01*
X8507500Y-14046071D01*
X8507500Y-13974643D01*
X8493214Y-13946071D01*
X8478928Y-13931786D01*
X8450357Y-13917500D01*
X8393214Y-13917500D01*
X8364643Y-13931786D01*
X8350357Y-13946071D01*
X8336071Y-13974643D01*
X8621786Y-13803214D02*
X8621786Y-13860357D01*
X8736071Y-13803214D02*
X8736071Y-13860357D01*
X9178928Y-14217500D02*
X9164643Y-14203214D01*
X9136071Y-14160357D01*
X9121786Y-14131786D01*
X9107500Y-14088929D01*
X9093214Y-14017500D01*
X9093214Y-13960357D01*
X9107500Y-13888929D01*
X9121786Y-13846071D01*
X9136071Y-13817500D01*
X9164643Y-13774643D01*
X9178928Y-13760357D01*
X9436071Y-13803214D02*
X9293214Y-13803214D01*
X9278928Y-13946071D01*
X9293214Y-13931786D01*
X9321786Y-13917500D01*
X9393214Y-13917500D01*
X9421786Y-13931786D01*
X9436071Y-13946071D01*
X9450357Y-13974643D01*
X9450357Y-14046071D01*
X9436071Y-14074643D01*
X9421786Y-14088929D01*
X9393214Y-14103214D01*
X9321786Y-14103214D01*
X9293214Y-14088929D01*
X9278928Y-14074643D01*
X9721786Y-13803214D02*
X9578928Y-13803214D01*
X9564643Y-13946071D01*
X9578928Y-13931786D01*
X9607500Y-13917500D01*
X9678928Y-13917500D01*
X9707500Y-13931786D01*
X9721786Y-13946071D01*
X9736071Y-13974643D01*
X9736071Y-14046071D01*
X9721786Y-14074643D01*
X9707500Y-14088929D01*
X9678928Y-14103214D01*
X9607500Y-14103214D01*
X9578928Y-14088929D01*
X9564643Y-14074643D01*
X10093214Y-14103214D02*
X10093214Y-13803214D01*
X10221786Y-14103214D02*
X10221786Y-13946071D01*
X10207500Y-13917500D01*
X10178928Y-13903214D01*
X10136071Y-13903214D01*
X10107500Y-13917500D01*
X10093214Y-13931786D01*
X10407500Y-14103214D02*
X10378928Y-14088929D01*
X10364643Y-14074643D01*
X10350357Y-14046071D01*
X10350357Y-13960357D01*
X10364643Y-13931786D01*
X10378928Y-13917500D01*
X10407500Y-13903214D01*
X10450357Y-13903214D01*
X10478928Y-13917500D01*
X10493214Y-13931786D01*
X10507500Y-13960357D01*
X10507500Y-14046071D01*
X10493214Y-14074643D01*
X10478928Y-14088929D01*
X10450357Y-14103214D01*
X10407500Y-14103214D01*
X10678928Y-14103214D02*
X10650357Y-14088929D01*
X10636071Y-14060357D01*
X10636071Y-13803214D01*
X10907500Y-14088929D02*
X10878928Y-14103214D01*
X10821786Y-14103214D01*
X10793214Y-14088929D01*
X10778928Y-14060357D01*
X10778928Y-13946071D01*
X10793214Y-13917500D01*
X10821786Y-13903214D01*
X10878928Y-13903214D01*
X10907500Y-13917500D01*
X10921786Y-13946071D01*
X10921786Y-13974643D01*
X10778928Y-14003214D01*
X11036071Y-14088929D02*
X11064643Y-14103214D01*
X11121786Y-14103214D01*
X11150357Y-14088929D01*
X11164643Y-14060357D01*
X11164643Y-14046071D01*
X11150357Y-14017500D01*
X11121786Y-14003214D01*
X11078928Y-14003214D01*
X11050357Y-13988929D01*
X11036071Y-13960357D01*
X11036071Y-13946071D01*
X11050357Y-13917500D01*
X11078928Y-13903214D01*
X11121786Y-13903214D01*
X11150357Y-13917500D01*
X11264643Y-14217500D02*
X11278928Y-14203214D01*
X11307500Y-14160357D01*
X11321786Y-14131786D01*
X11336071Y-14088929D01*
X11350357Y-14017500D01*
X11350357Y-13960357D01*
X11336071Y-13888929D01*
X11321786Y-13846071D01*
X11307500Y-13817500D01*
X11278928Y-13774643D01*
X11264643Y-13760357D01*
X4492500Y-14363500D02*
G75*
G03X4492500Y-14363500I-42500J0D01*
G01*
X4836071Y-14199214D02*
X4864643Y-14199214D01*
X4893214Y-14213500D01*
X4907500Y-14227786D01*
X4921786Y-14256357D01*
X4936071Y-14313500D01*
X4936071Y-14384929D01*
X4921786Y-14442071D01*
X4907500Y-14470643D01*
X4893214Y-14484929D01*
X4864643Y-14499214D01*
X4836071Y-14499214D01*
X4807500Y-14484929D01*
X4793214Y-14470643D01*
X4778928Y-14442071D01*
X4764643Y-14384929D01*
X4764643Y-14313500D01*
X4778928Y-14256357D01*
X4793214Y-14227786D01*
X4807500Y-14213500D01*
X4836071Y-14199214D01*
X5064643Y-14470643D02*
X5078928Y-14484929D01*
X5064643Y-14499214D01*
X5050357Y-14484929D01*
X5064643Y-14470643D01*
X5064643Y-14499214D01*
X5250357Y-14327786D02*
X5221786Y-14313500D01*
X5207500Y-14299214D01*
X5193214Y-14270643D01*
X5193214Y-14256357D01*
X5207500Y-14227786D01*
X5221786Y-14213500D01*
X5250357Y-14199214D01*
X5307500Y-14199214D01*
X5336071Y-14213500D01*
X5350357Y-14227786D01*
X5364643Y-14256357D01*
X5364643Y-14270643D01*
X5350357Y-14299214D01*
X5336071Y-14313500D01*
X5307500Y-14327786D01*
X5250357Y-14327786D01*
X5221786Y-14342071D01*
X5207500Y-14356357D01*
X5193214Y-14384929D01*
X5193214Y-14442071D01*
X5207500Y-14470643D01*
X5221786Y-14484929D01*
X5250357Y-14499214D01*
X5307500Y-14499214D01*
X5336071Y-14484929D01*
X5350357Y-14470643D01*
X5364643Y-14442071D01*
X5364643Y-14384929D01*
X5350357Y-14356357D01*
X5336071Y-14342071D01*
X5307500Y-14327786D01*
X5636071Y-14199214D02*
X5493214Y-14199214D01*
X5478928Y-14342071D01*
X5493214Y-14327786D01*
X5521786Y-14313500D01*
X5593214Y-14313500D01*
X5621786Y-14327786D01*
X5636071Y-14342071D01*
X5650357Y-14370643D01*
X5650357Y-14442071D01*
X5636071Y-14470643D01*
X5621786Y-14484929D01*
X5593214Y-14499214D01*
X5521786Y-14499214D01*
X5493214Y-14484929D01*
X5478928Y-14470643D01*
X5778928Y-14499214D02*
X5778928Y-14299214D01*
X5778928Y-14327786D02*
X5793214Y-14313500D01*
X5821786Y-14299214D01*
X5864643Y-14299214D01*
X5893214Y-14313500D01*
X5907500Y-14342071D01*
X5907500Y-14499214D01*
X5907500Y-14342071D02*
X5921786Y-14313500D01*
X5950357Y-14299214D01*
X5993214Y-14299214D01*
X6021786Y-14313500D01*
X6036071Y-14342071D01*
X6036071Y-14499214D01*
X6178928Y-14499214D02*
X6178928Y-14299214D01*
X6178928Y-14327786D02*
X6193214Y-14313500D01*
X6221786Y-14299214D01*
X6264643Y-14299214D01*
X6293214Y-14313500D01*
X6307500Y-14342071D01*
X6307500Y-14499214D01*
X6307500Y-14342071D02*
X6321786Y-14313500D01*
X6350357Y-14299214D01*
X6393214Y-14299214D01*
X6421786Y-14313500D01*
X6436071Y-14342071D01*
X6436071Y-14499214D01*
X7021786Y-14184929D02*
X6764643Y-14570643D01*
X7407500Y-14199214D02*
X7436071Y-14199214D01*
X7464643Y-14213500D01*
X7478928Y-14227786D01*
X7493214Y-14256357D01*
X7507500Y-14313500D01*
X7507500Y-14384929D01*
X7493214Y-14442071D01*
X7478928Y-14470643D01*
X7464643Y-14484929D01*
X7436071Y-14499214D01*
X7407500Y-14499214D01*
X7378928Y-14484929D01*
X7364643Y-14470643D01*
X7350357Y-14442071D01*
X7336071Y-14384929D01*
X7336071Y-14313500D01*
X7350357Y-14256357D01*
X7364643Y-14227786D01*
X7378928Y-14213500D01*
X7407500Y-14199214D01*
X7636071Y-14470643D02*
X7650357Y-14484929D01*
X7636071Y-14499214D01*
X7621786Y-14484929D01*
X7636071Y-14470643D01*
X7636071Y-14499214D01*
X7836071Y-14199214D02*
X7864643Y-14199214D01*
X7893214Y-14213500D01*
X7907500Y-14227786D01*
X7921786Y-14256357D01*
X7936071Y-14313500D01*
X7936071Y-14384929D01*
X7921786Y-14442071D01*
X7907500Y-14470643D01*
X7893214Y-14484929D01*
X7864643Y-14499214D01*
X7836071Y-14499214D01*
X7807500Y-14484929D01*
X7793214Y-14470643D01*
X7778928Y-14442071D01*
X7764643Y-14384929D01*
X7764643Y-14313500D01*
X7778928Y-14256357D01*
X7793214Y-14227786D01*
X7807500Y-14213500D01*
X7836071Y-14199214D01*
X8036071Y-14199214D02*
X8221786Y-14199214D01*
X8121786Y-14313500D01*
X8164643Y-14313500D01*
X8193214Y-14327786D01*
X8207500Y-14342071D01*
X8221786Y-14370643D01*
X8221786Y-14442071D01*
X8207500Y-14470643D01*
X8193214Y-14484929D01*
X8164643Y-14499214D01*
X8078928Y-14499214D01*
X8050357Y-14484929D01*
X8036071Y-14470643D01*
X8321786Y-14199214D02*
X8507500Y-14199214D01*
X8407500Y-14313500D01*
X8450357Y-14313500D01*
X8478928Y-14327786D01*
X8493214Y-14342071D01*
X8507500Y-14370643D01*
X8507500Y-14442071D01*
X8493214Y-14470643D01*
X8478928Y-14484929D01*
X8450357Y-14499214D01*
X8364643Y-14499214D01*
X8336071Y-14484929D01*
X8321786Y-14470643D01*
X8621786Y-14199214D02*
X8621786Y-14256357D01*
X8736071Y-14199214D02*
X8736071Y-14256357D01*
X9178928Y-14613500D02*
X9164643Y-14599214D01*
X9136071Y-14556357D01*
X9121786Y-14527786D01*
X9107500Y-14484929D01*
X9093214Y-14413500D01*
X9093214Y-14356357D01*
X9107500Y-14284929D01*
X9121786Y-14242071D01*
X9136071Y-14213500D01*
X9164643Y-14170643D01*
X9178928Y-14156357D01*
X9278928Y-14227786D02*
X9293214Y-14213500D01*
X9321786Y-14199214D01*
X9393214Y-14199214D01*
X9421786Y-14213500D01*
X9436071Y-14227786D01*
X9450357Y-14256357D01*
X9450357Y-14284929D01*
X9436071Y-14327786D01*
X9264643Y-14499214D01*
X9450357Y-14499214D01*
X9807500Y-14499214D02*
X9807500Y-14199214D01*
X9936071Y-14499214D02*
X9936071Y-14342071D01*
X9921786Y-14313500D01*
X9893214Y-14299214D01*
X9850357Y-14299214D01*
X9821786Y-14313500D01*
X9807500Y-14327786D01*
X10121786Y-14499214D02*
X10093214Y-14484929D01*
X10078928Y-14470643D01*
X10064643Y-14442071D01*
X10064643Y-14356357D01*
X10078928Y-14327786D01*
X10093214Y-14313500D01*
X10121786Y-14299214D01*
X10164643Y-14299214D01*
X10193214Y-14313500D01*
X10207500Y-14327786D01*
X10221786Y-14356357D01*
X10221786Y-14442071D01*
X10207500Y-14470643D01*
X10193214Y-14484929D01*
X10164643Y-14499214D01*
X10121786Y-14499214D01*
X10393214Y-14499214D02*
X10364643Y-14484929D01*
X10350357Y-14456357D01*
X10350357Y-14199214D01*
X10621786Y-14484929D02*
X10593214Y-14499214D01*
X10536071Y-14499214D01*
X10507500Y-14484929D01*
X10493214Y-14456357D01*
X10493214Y-14342071D01*
X10507500Y-14313500D01*
X10536071Y-14299214D01*
X10593214Y-14299214D01*
X10621786Y-14313500D01*
X10636071Y-14342071D01*
X10636071Y-14370643D01*
X10493214Y-14399214D01*
X10750357Y-14484929D02*
X10778928Y-14499214D01*
X10836071Y-14499214D01*
X10864643Y-14484929D01*
X10878928Y-14456357D01*
X10878928Y-14442071D01*
X10864643Y-14413500D01*
X10836071Y-14399214D01*
X10793214Y-14399214D01*
X10764643Y-14384929D01*
X10750357Y-14356357D01*
X10750357Y-14342071D01*
X10764643Y-14313500D01*
X10793214Y-14299214D01*
X10836071Y-14299214D01*
X10864643Y-14313500D01*
X10978928Y-14613500D02*
X10993214Y-14599214D01*
X11021786Y-14556357D01*
X11036071Y-14527786D01*
X11050357Y-14484929D01*
X11064643Y-14413500D01*
X11064643Y-14356357D01*
X11050357Y-14284929D01*
X11036071Y-14242071D01*
X11021786Y-14213500D01*
X10993214Y-14170643D01*
X10978928Y-14156357D01*
X4442500Y-14709500D02*
X4442500Y-14809500D01*
X4392500Y-14759500D02*
X4492500Y-14759500D01*
X4936071Y-14895214D02*
X4764643Y-14895214D01*
X4850357Y-14895214D02*
X4850357Y-14595214D01*
X4821786Y-14638071D01*
X4793214Y-14666643D01*
X4764643Y-14680929D01*
X5064643Y-14866643D02*
X5078928Y-14880929D01*
X5064643Y-14895214D01*
X5050357Y-14880929D01*
X5064643Y-14866643D01*
X5064643Y-14895214D01*
X5264643Y-14595214D02*
X5293214Y-14595214D01*
X5321786Y-14609500D01*
X5336071Y-14623786D01*
X5350357Y-14652357D01*
X5364643Y-14709500D01*
X5364643Y-14780929D01*
X5350357Y-14838071D01*
X5336071Y-14866643D01*
X5321786Y-14880929D01*
X5293214Y-14895214D01*
X5264643Y-14895214D01*
X5236071Y-14880929D01*
X5221786Y-14866643D01*
X5207500Y-14838071D01*
X5193214Y-14780929D01*
X5193214Y-14709500D01*
X5207500Y-14652357D01*
X5221786Y-14623786D01*
X5236071Y-14609500D01*
X5264643Y-14595214D01*
X5550357Y-14595214D02*
X5578928Y-14595214D01*
X5607500Y-14609500D01*
X5621786Y-14623786D01*
X5636071Y-14652357D01*
X5650357Y-14709500D01*
X5650357Y-14780929D01*
X5636071Y-14838071D01*
X5621786Y-14866643D01*
X5607500Y-14880929D01*
X5578928Y-14895214D01*
X5550357Y-14895214D01*
X5521786Y-14880929D01*
X5507500Y-14866643D01*
X5493214Y-14838071D01*
X5478928Y-14780929D01*
X5478928Y-14709500D01*
X5493214Y-14652357D01*
X5507500Y-14623786D01*
X5521786Y-14609500D01*
X5550357Y-14595214D01*
X5778928Y-14895214D02*
X5778928Y-14695214D01*
X5778928Y-14723786D02*
X5793214Y-14709500D01*
X5821786Y-14695214D01*
X5864643Y-14695214D01*
X5893214Y-14709500D01*
X5907500Y-14738071D01*
X5907500Y-14895214D01*
X5907500Y-14738071D02*
X5921786Y-14709500D01*
X5950357Y-14695214D01*
X5993214Y-14695214D01*
X6021786Y-14709500D01*
X6036071Y-14738071D01*
X6036071Y-14895214D01*
X6178928Y-14895214D02*
X6178928Y-14695214D01*
X6178928Y-14723786D02*
X6193214Y-14709500D01*
X6221786Y-14695214D01*
X6264643Y-14695214D01*
X6293214Y-14709500D01*
X6307500Y-14738071D01*
X6307500Y-14895214D01*
X6307500Y-14738071D02*
X6321786Y-14709500D01*
X6350357Y-14695214D01*
X6393214Y-14695214D01*
X6421786Y-14709500D01*
X6436071Y-14738071D01*
X6436071Y-14895214D01*
X7021786Y-14580929D02*
X6764643Y-14966643D01*
X7407500Y-14595214D02*
X7436071Y-14595214D01*
X7464643Y-14609500D01*
X7478928Y-14623786D01*
X7493214Y-14652357D01*
X7507500Y-14709500D01*
X7507500Y-14780929D01*
X7493214Y-14838071D01*
X7478928Y-14866643D01*
X7464643Y-14880929D01*
X7436071Y-14895214D01*
X7407500Y-14895214D01*
X7378928Y-14880929D01*
X7364643Y-14866643D01*
X7350357Y-14838071D01*
X7336071Y-14780929D01*
X7336071Y-14709500D01*
X7350357Y-14652357D01*
X7364643Y-14623786D01*
X7378928Y-14609500D01*
X7407500Y-14595214D01*
X7636071Y-14866643D02*
X7650357Y-14880929D01*
X7636071Y-14895214D01*
X7621786Y-14880929D01*
X7636071Y-14866643D01*
X7636071Y-14895214D01*
X7836071Y-14595214D02*
X7864643Y-14595214D01*
X7893214Y-14609500D01*
X7907500Y-14623786D01*
X7921786Y-14652357D01*
X7936071Y-14709500D01*
X7936071Y-14780929D01*
X7921786Y-14838071D01*
X7907500Y-14866643D01*
X7893214Y-14880929D01*
X7864643Y-14895214D01*
X7836071Y-14895214D01*
X7807500Y-14880929D01*
X7793214Y-14866643D01*
X7778928Y-14838071D01*
X7764643Y-14780929D01*
X7764643Y-14709500D01*
X7778928Y-14652357D01*
X7793214Y-14623786D01*
X7807500Y-14609500D01*
X7836071Y-14595214D01*
X8036071Y-14595214D02*
X8221786Y-14595214D01*
X8121786Y-14709500D01*
X8164643Y-14709500D01*
X8193214Y-14723786D01*
X8207500Y-14738071D01*
X8221786Y-14766643D01*
X8221786Y-14838071D01*
X8207500Y-14866643D01*
X8193214Y-14880929D01*
X8164643Y-14895214D01*
X8078928Y-14895214D01*
X8050357Y-14880929D01*
X8036071Y-14866643D01*
X8364643Y-14895214D02*
X8421786Y-14895214D01*
X8450357Y-14880929D01*
X8464643Y-14866643D01*
X8493214Y-14823786D01*
X8507500Y-14766643D01*
X8507500Y-14652357D01*
X8493214Y-14623786D01*
X8478928Y-14609500D01*
X8450357Y-14595214D01*
X8393214Y-14595214D01*
X8364643Y-14609500D01*
X8350357Y-14623786D01*
X8336071Y-14652357D01*
X8336071Y-14723786D01*
X8350357Y-14752357D01*
X8364643Y-14766643D01*
X8393214Y-14780929D01*
X8450357Y-14780929D01*
X8478928Y-14766643D01*
X8493214Y-14752357D01*
X8507500Y-14723786D01*
X8621786Y-14595214D02*
X8621786Y-14652357D01*
X8736071Y-14595214D02*
X8736071Y-14652357D01*
X9178928Y-15009500D02*
X9164643Y-14995214D01*
X9136071Y-14952357D01*
X9121786Y-14923786D01*
X9107500Y-14880929D01*
X9093214Y-14809500D01*
X9093214Y-14752357D01*
X9107500Y-14680929D01*
X9121786Y-14638071D01*
X9136071Y-14609500D01*
X9164643Y-14566643D01*
X9178928Y-14552357D01*
X9264643Y-14595214D02*
X9450357Y-14595214D01*
X9350357Y-14709500D01*
X9393214Y-14709500D01*
X9421786Y-14723786D01*
X9436071Y-14738071D01*
X9450357Y-14766643D01*
X9450357Y-14838071D01*
X9436071Y-14866643D01*
X9421786Y-14880929D01*
X9393214Y-14895214D01*
X9307500Y-14895214D01*
X9278928Y-14880929D01*
X9264643Y-14866643D01*
X9564643Y-14623786D02*
X9578928Y-14609500D01*
X9607500Y-14595214D01*
X9678928Y-14595214D01*
X9707500Y-14609500D01*
X9721786Y-14623786D01*
X9736071Y-14652357D01*
X9736071Y-14680929D01*
X9721786Y-14723786D01*
X9550357Y-14895214D01*
X9736071Y-14895214D01*
X10093214Y-14895214D02*
X10093214Y-14595214D01*
X10221786Y-14895214D02*
X10221786Y-14738071D01*
X10207500Y-14709500D01*
X10178928Y-14695214D01*
X10136071Y-14695214D01*
X10107500Y-14709500D01*
X10093214Y-14723786D01*
X10407500Y-14895214D02*
X10378928Y-14880929D01*
X10364643Y-14866643D01*
X10350357Y-14838071D01*
X10350357Y-14752357D01*
X10364643Y-14723786D01*
X10378928Y-14709500D01*
X10407500Y-14695214D01*
X10450357Y-14695214D01*
X10478928Y-14709500D01*
X10493214Y-14723786D01*
X10507500Y-14752357D01*
X10507500Y-14838071D01*
X10493214Y-14866643D01*
X10478928Y-14880929D01*
X10450357Y-14895214D01*
X10407500Y-14895214D01*
X10678928Y-14895214D02*
X10650357Y-14880929D01*
X10636071Y-14852357D01*
X10636071Y-14595214D01*
X10907500Y-14880929D02*
X10878928Y-14895214D01*
X10821786Y-14895214D01*
X10793214Y-14880929D01*
X10778928Y-14852357D01*
X10778928Y-14738071D01*
X10793214Y-14709500D01*
X10821786Y-14695214D01*
X10878928Y-14695214D01*
X10907500Y-14709500D01*
X10921786Y-14738071D01*
X10921786Y-14766643D01*
X10778928Y-14795214D01*
X11036071Y-14880929D02*
X11064643Y-14895214D01*
X11121786Y-14895214D01*
X11150357Y-14880929D01*
X11164643Y-14852357D01*
X11164643Y-14838071D01*
X11150357Y-14809500D01*
X11121786Y-14795214D01*
X11078928Y-14795214D01*
X11050357Y-14780929D01*
X11036071Y-14752357D01*
X11036071Y-14738071D01*
X11050357Y-14709500D01*
X11078928Y-14695214D01*
X11121786Y-14695214D01*
X11150357Y-14709500D01*
X11264643Y-15009500D02*
X11278928Y-14995214D01*
X11307500Y-14952357D01*
X11321786Y-14923786D01*
X11336071Y-14880929D01*
X11350357Y-14809500D01*
X11350357Y-14752357D01*
X11336071Y-14680929D01*
X11321786Y-14638071D01*
X11307500Y-14609500D01*
X11278928Y-14566643D01*
X11264643Y-14552357D01*
X4475659Y-15196159D02*
X4475659Y-15114841D01*
X4394341Y-15114841D01*
X4394341Y-15196159D01*
X4475659Y-15196159D01*
X4936071Y-15291214D02*
X4764643Y-15291214D01*
X4850357Y-15291214D02*
X4850357Y-14991214D01*
X4821786Y-15034071D01*
X4793214Y-15062643D01*
X4764643Y-15076929D01*
X5064643Y-15262643D02*
X5078928Y-15276929D01*
X5064643Y-15291214D01*
X5050357Y-15276929D01*
X5064643Y-15262643D01*
X5064643Y-15291214D01*
X5364643Y-15291214D02*
X5193214Y-15291214D01*
X5278928Y-15291214D02*
X5278928Y-14991214D01*
X5250357Y-15034071D01*
X5221786Y-15062643D01*
X5193214Y-15076929D01*
X5636071Y-14991214D02*
X5493214Y-14991214D01*
X5478928Y-15134071D01*
X5493214Y-15119786D01*
X5521786Y-15105500D01*
X5593214Y-15105500D01*
X5621786Y-15119786D01*
X5636071Y-15134071D01*
X5650357Y-15162643D01*
X5650357Y-15234071D01*
X5636071Y-15262643D01*
X5621786Y-15276929D01*
X5593214Y-15291214D01*
X5521786Y-15291214D01*
X5493214Y-15276929D01*
X5478928Y-15262643D01*
X5778928Y-15291214D02*
X5778928Y-15091214D01*
X5778928Y-15119786D02*
X5793214Y-15105500D01*
X5821786Y-15091214D01*
X5864643Y-15091214D01*
X5893214Y-15105500D01*
X5907500Y-15134071D01*
X5907500Y-15291214D01*
X5907500Y-15134071D02*
X5921786Y-15105500D01*
X5950357Y-15091214D01*
X5993214Y-15091214D01*
X6021786Y-15105500D01*
X6036071Y-15134071D01*
X6036071Y-15291214D01*
X6178928Y-15291214D02*
X6178928Y-15091214D01*
X6178928Y-15119786D02*
X6193214Y-15105500D01*
X6221786Y-15091214D01*
X6264643Y-15091214D01*
X6293214Y-15105500D01*
X6307500Y-15134071D01*
X6307500Y-15291214D01*
X6307500Y-15134071D02*
X6321786Y-15105500D01*
X6350357Y-15091214D01*
X6393214Y-15091214D01*
X6421786Y-15105500D01*
X6436071Y-15134071D01*
X6436071Y-15291214D01*
X7021786Y-14976929D02*
X6764643Y-15362643D01*
X7407500Y-14991214D02*
X7436071Y-14991214D01*
X7464643Y-15005500D01*
X7478928Y-15019786D01*
X7493214Y-15048357D01*
X7507500Y-15105500D01*
X7507500Y-15176929D01*
X7493214Y-15234071D01*
X7478928Y-15262643D01*
X7464643Y-15276929D01*
X7436071Y-15291214D01*
X7407500Y-15291214D01*
X7378928Y-15276929D01*
X7364643Y-15262643D01*
X7350357Y-15234071D01*
X7336071Y-15176929D01*
X7336071Y-15105500D01*
X7350357Y-15048357D01*
X7364643Y-15019786D01*
X7378928Y-15005500D01*
X7407500Y-14991214D01*
X7636071Y-15262643D02*
X7650357Y-15276929D01*
X7636071Y-15291214D01*
X7621786Y-15276929D01*
X7636071Y-15262643D01*
X7636071Y-15291214D01*
X7836071Y-14991214D02*
X7864643Y-14991214D01*
X7893214Y-15005500D01*
X7907500Y-15019786D01*
X7921786Y-15048357D01*
X7936071Y-15105500D01*
X7936071Y-15176929D01*
X7921786Y-15234071D01*
X7907500Y-15262643D01*
X7893214Y-15276929D01*
X7864643Y-15291214D01*
X7836071Y-15291214D01*
X7807500Y-15276929D01*
X7793214Y-15262643D01*
X7778928Y-15234071D01*
X7764643Y-15176929D01*
X7764643Y-15105500D01*
X7778928Y-15048357D01*
X7793214Y-15019786D01*
X7807500Y-15005500D01*
X7836071Y-14991214D01*
X8193214Y-15091214D02*
X8193214Y-15291214D01*
X8121786Y-14976929D02*
X8050357Y-15191214D01*
X8236071Y-15191214D01*
X8493214Y-14991214D02*
X8350357Y-14991214D01*
X8336071Y-15134071D01*
X8350357Y-15119786D01*
X8378928Y-15105500D01*
X8450357Y-15105500D01*
X8478928Y-15119786D01*
X8493214Y-15134071D01*
X8507500Y-15162643D01*
X8507500Y-15234071D01*
X8493214Y-15262643D01*
X8478928Y-15276929D01*
X8450357Y-15291214D01*
X8378928Y-15291214D01*
X8350357Y-15276929D01*
X8336071Y-15262643D01*
X8621786Y-14991214D02*
X8621786Y-15048357D01*
X8736071Y-14991214D02*
X8736071Y-15048357D01*
X9178928Y-15405500D02*
X9164643Y-15391214D01*
X9136071Y-15348357D01*
X9121786Y-15319786D01*
X9107500Y-15276929D01*
X9093214Y-15205500D01*
X9093214Y-15148357D01*
X9107500Y-15076929D01*
X9121786Y-15034071D01*
X9136071Y-15005500D01*
X9164643Y-14962643D01*
X9178928Y-14948357D01*
X9278928Y-15019786D02*
X9293214Y-15005500D01*
X9321786Y-14991214D01*
X9393214Y-14991214D01*
X9421786Y-15005500D01*
X9436071Y-15019786D01*
X9450357Y-15048357D01*
X9450357Y-15076929D01*
X9436071Y-15119786D01*
X9264643Y-15291214D01*
X9450357Y-15291214D01*
X9807500Y-15291214D02*
X9807500Y-14991214D01*
X9936071Y-15291214D02*
X9936071Y-15134071D01*
X9921786Y-15105500D01*
X9893214Y-15091214D01*
X9850357Y-15091214D01*
X9821786Y-15105500D01*
X9807500Y-15119786D01*
X10121786Y-15291214D02*
X10093214Y-15276929D01*
X10078928Y-15262643D01*
X10064643Y-15234071D01*
X10064643Y-15148357D01*
X10078928Y-15119786D01*
X10093214Y-15105500D01*
X10121786Y-15091214D01*
X10164643Y-15091214D01*
X10193214Y-15105500D01*
X10207500Y-15119786D01*
X10221786Y-15148357D01*
X10221786Y-15234071D01*
X10207500Y-15262643D01*
X10193214Y-15276929D01*
X10164643Y-15291214D01*
X10121786Y-15291214D01*
X10393214Y-15291214D02*
X10364643Y-15276929D01*
X10350357Y-15248357D01*
X10350357Y-14991214D01*
X10621786Y-15276929D02*
X10593214Y-15291214D01*
X10536071Y-15291214D01*
X10507500Y-15276929D01*
X10493214Y-15248357D01*
X10493214Y-15134071D01*
X10507500Y-15105500D01*
X10536071Y-15091214D01*
X10593214Y-15091214D01*
X10621786Y-15105500D01*
X10636071Y-15134071D01*
X10636071Y-15162643D01*
X10493214Y-15191214D01*
X10750357Y-15276929D02*
X10778928Y-15291214D01*
X10836071Y-15291214D01*
X10864643Y-15276929D01*
X10878928Y-15248357D01*
X10878928Y-15234071D01*
X10864643Y-15205500D01*
X10836071Y-15191214D01*
X10793214Y-15191214D01*
X10764643Y-15176929D01*
X10750357Y-15148357D01*
X10750357Y-15134071D01*
X10764643Y-15105500D01*
X10793214Y-15091214D01*
X10836071Y-15091214D01*
X10864643Y-15105500D01*
X10978928Y-15405500D02*
X10993214Y-15391214D01*
X11021786Y-15348357D01*
X11036071Y-15319786D01*
X11050357Y-15276929D01*
X11064643Y-15205500D01*
X11064643Y-15148357D01*
X11050357Y-15076929D01*
X11036071Y-15034071D01*
X11021786Y-15005500D01*
X10993214Y-14962643D01*
X10978928Y-14948357D01*
X4426500Y-15617500D02*
X4492500Y-15551500D01*
X4426500Y-15485500D01*
X4360500Y-15551500D01*
X4426500Y-15617500D01*
X4936071Y-15687214D02*
X4764643Y-15687214D01*
X4850357Y-15687214D02*
X4850357Y-15387214D01*
X4821786Y-15430071D01*
X4793214Y-15458643D01*
X4764643Y-15472929D01*
X5064643Y-15658643D02*
X5078928Y-15672929D01*
X5064643Y-15687214D01*
X5050357Y-15672929D01*
X5064643Y-15658643D01*
X5064643Y-15687214D01*
X5178928Y-15387214D02*
X5364643Y-15387214D01*
X5264643Y-15501500D01*
X5307500Y-15501500D01*
X5336071Y-15515786D01*
X5350357Y-15530071D01*
X5364643Y-15558643D01*
X5364643Y-15630071D01*
X5350357Y-15658643D01*
X5336071Y-15672929D01*
X5307500Y-15687214D01*
X5221786Y-15687214D01*
X5193214Y-15672929D01*
X5178928Y-15658643D01*
X5478928Y-15415786D02*
X5493214Y-15401500D01*
X5521786Y-15387214D01*
X5593214Y-15387214D01*
X5621786Y-15401500D01*
X5636071Y-15415786D01*
X5650357Y-15444357D01*
X5650357Y-15472929D01*
X5636071Y-15515786D01*
X5464643Y-15687214D01*
X5650357Y-15687214D01*
X5778928Y-15687214D02*
X5778928Y-15487214D01*
X5778928Y-15515786D02*
X5793214Y-15501500D01*
X5821786Y-15487214D01*
X5864643Y-15487214D01*
X5893214Y-15501500D01*
X5907500Y-15530071D01*
X5907500Y-15687214D01*
X5907500Y-15530071D02*
X5921786Y-15501500D01*
X5950357Y-15487214D01*
X5993214Y-15487214D01*
X6021786Y-15501500D01*
X6036071Y-15530071D01*
X6036071Y-15687214D01*
X6178928Y-15687214D02*
X6178928Y-15487214D01*
X6178928Y-15515786D02*
X6193214Y-15501500D01*
X6221786Y-15487214D01*
X6264643Y-15487214D01*
X6293214Y-15501500D01*
X6307500Y-15530071D01*
X6307500Y-15687214D01*
X6307500Y-15530071D02*
X6321786Y-15501500D01*
X6350357Y-15487214D01*
X6393214Y-15487214D01*
X6421786Y-15501500D01*
X6436071Y-15530071D01*
X6436071Y-15687214D01*
X7021786Y-15372929D02*
X6764643Y-15758643D01*
X7407500Y-15387214D02*
X7436071Y-15387214D01*
X7464643Y-15401500D01*
X7478928Y-15415786D01*
X7493214Y-15444357D01*
X7507500Y-15501500D01*
X7507500Y-15572929D01*
X7493214Y-15630071D01*
X7478928Y-15658643D01*
X7464643Y-15672929D01*
X7436071Y-15687214D01*
X7407500Y-15687214D01*
X7378928Y-15672929D01*
X7364643Y-15658643D01*
X7350357Y-15630071D01*
X7336071Y-15572929D01*
X7336071Y-15501500D01*
X7350357Y-15444357D01*
X7364643Y-15415786D01*
X7378928Y-15401500D01*
X7407500Y-15387214D01*
X7636071Y-15658643D02*
X7650357Y-15672929D01*
X7636071Y-15687214D01*
X7621786Y-15672929D01*
X7636071Y-15658643D01*
X7636071Y-15687214D01*
X7836071Y-15387214D02*
X7864643Y-15387214D01*
X7893214Y-15401500D01*
X7907500Y-15415786D01*
X7921786Y-15444357D01*
X7936071Y-15501500D01*
X7936071Y-15572929D01*
X7921786Y-15630071D01*
X7907500Y-15658643D01*
X7893214Y-15672929D01*
X7864643Y-15687214D01*
X7836071Y-15687214D01*
X7807500Y-15672929D01*
X7793214Y-15658643D01*
X7778928Y-15630071D01*
X7764643Y-15572929D01*
X7764643Y-15501500D01*
X7778928Y-15444357D01*
X7793214Y-15415786D01*
X7807500Y-15401500D01*
X7836071Y-15387214D01*
X8207500Y-15387214D02*
X8064643Y-15387214D01*
X8050357Y-15530071D01*
X8064643Y-15515786D01*
X8093214Y-15501500D01*
X8164643Y-15501500D01*
X8193214Y-15515786D01*
X8207500Y-15530071D01*
X8221786Y-15558643D01*
X8221786Y-15630071D01*
X8207500Y-15658643D01*
X8193214Y-15672929D01*
X8164643Y-15687214D01*
X8093214Y-15687214D01*
X8064643Y-15672929D01*
X8050357Y-15658643D01*
X8336071Y-15415786D02*
X8350357Y-15401500D01*
X8378928Y-15387214D01*
X8450357Y-15387214D01*
X8478928Y-15401500D01*
X8493214Y-15415786D01*
X8507500Y-15444357D01*
X8507500Y-15472929D01*
X8493214Y-15515786D01*
X8321786Y-15687214D01*
X8507500Y-15687214D01*
X8621786Y-15387214D02*
X8621786Y-15444357D01*
X8736071Y-15387214D02*
X8736071Y-15444357D01*
X9178928Y-15801500D02*
X9164643Y-15787214D01*
X9136071Y-15744357D01*
X9121786Y-15715786D01*
X9107500Y-15672929D01*
X9093214Y-15601500D01*
X9093214Y-15544357D01*
X9107500Y-15472929D01*
X9121786Y-15430071D01*
X9136071Y-15401500D01*
X9164643Y-15358643D01*
X9178928Y-15344357D01*
X9278928Y-15415786D02*
X9293214Y-15401500D01*
X9321786Y-15387214D01*
X9393214Y-15387214D01*
X9421786Y-15401500D01*
X9436071Y-15415786D01*
X9450357Y-15444357D01*
X9450357Y-15472929D01*
X9436071Y-15515786D01*
X9264643Y-15687214D01*
X9450357Y-15687214D01*
X9807500Y-15687214D02*
X9807500Y-15387214D01*
X9936071Y-15687214D02*
X9936071Y-15530071D01*
X9921786Y-15501500D01*
X9893214Y-15487214D01*
X9850357Y-15487214D01*
X9821786Y-15501500D01*
X9807500Y-15515786D01*
X10121786Y-15687214D02*
X10093214Y-15672929D01*
X10078928Y-15658643D01*
X10064643Y-15630071D01*
X10064643Y-15544357D01*
X10078928Y-15515786D01*
X10093214Y-15501500D01*
X10121786Y-15487214D01*
X10164643Y-15487214D01*
X10193214Y-15501500D01*
X10207500Y-15515786D01*
X10221786Y-15544357D01*
X10221786Y-15630071D01*
X10207500Y-15658643D01*
X10193214Y-15672929D01*
X10164643Y-15687214D01*
X10121786Y-15687214D01*
X10393214Y-15687214D02*
X10364643Y-15672929D01*
X10350357Y-15644357D01*
X10350357Y-15387214D01*
X10621786Y-15672929D02*
X10593214Y-15687214D01*
X10536071Y-15687214D01*
X10507500Y-15672929D01*
X10493214Y-15644357D01*
X10493214Y-15530071D01*
X10507500Y-15501500D01*
X10536071Y-15487214D01*
X10593214Y-15487214D01*
X10621786Y-15501500D01*
X10636071Y-15530071D01*
X10636071Y-15558643D01*
X10493214Y-15587214D01*
X10750357Y-15672929D02*
X10778928Y-15687214D01*
X10836071Y-15687214D01*
X10864643Y-15672929D01*
X10878928Y-15644357D01*
X10878928Y-15630071D01*
X10864643Y-15601500D01*
X10836071Y-15587214D01*
X10793214Y-15587214D01*
X10764643Y-15572929D01*
X10750357Y-15544357D01*
X10750357Y-15530071D01*
X10764643Y-15501500D01*
X10793214Y-15487214D01*
X10836071Y-15487214D01*
X10864643Y-15501500D01*
X10978928Y-15801500D02*
X10993214Y-15787214D01*
X11021786Y-15744357D01*
X11036071Y-15715786D01*
X11050357Y-15672929D01*
X11064643Y-15601500D01*
X11064643Y-15544357D01*
X11050357Y-15472929D01*
X11036071Y-15430071D01*
X11021786Y-15401500D01*
X10993214Y-15358643D01*
X10978928Y-15344357D01*
M02*
